<svg width="44" height="44" viewBox="0 0 44 44" fill="none" xmlns="http://www.w3.org/2000/svg">
<circle cx="22" cy="22" r="21.5" stroke="#848484"/>
<g clip-path="url(#clip0_1_56)">
<path d="M19.0703 30.5029C19.0703 30.3563 19.038 30.2114 18.9758 30.0786C18.9135 29.9458 18.8228 29.8283 18.7101 29.7345C18.5974 29.6407 18.4655 29.5728 18.3236 29.5356C18.1817 29.4985 18.0334 29.493 17.8892 29.5195C16.5801 29.7598 14.9273 29.7959 14.4878 28.5615C14.1046 27.6055 13.4699 26.771 12.6509 26.1465C12.5925 26.1147 12.5368 26.0781 12.4844 26.0371C12.4127 25.8481 12.2854 25.6852 12.1193 25.5699C11.9531 25.4547 11.7559 25.3925 11.5537 25.3916H11.5488C11.2844 25.3915 11.0308 25.4962 10.8434 25.6827C10.6559 25.8692 10.55 26.1223 10.5488 26.3867C10.5449 27.2022 11.3598 27.7246 11.6904 27.9014C12.0803 28.2931 12.3936 28.7541 12.6143 29.2608C12.9785 30.2842 14.0371 31.8369 17.0801 31.6368C17.0811 31.6719 17.082 31.7051 17.0825 31.7354L17.0869 32.003C17.0869 32.2682 17.1923 32.5225 17.3798 32.7101C17.5674 32.8976 17.8217 33.003 18.0869 33.003C18.3521 33.003 18.6065 32.8976 18.794 32.7101C18.9816 32.5225 19.0869 32.2682 19.0869 32.003L19.082 31.6846C19.0772 31.4951 19.0703 31.2207 19.0703 30.5029ZM29.7373 15.3769C29.7691 15.2519 29.8003 15.1132 29.8277 14.957C29.9894 13.8426 29.8484 12.7052 29.4195 11.664C29.3653 11.5283 29.2822 11.406 29.1758 11.3058C29.0694 11.2056 28.9425 11.1299 28.8037 11.0839C28.4477 10.9638 27.1333 10.7275 24.6197 12.3339C22.5302 11.8422 20.3551 11.8422 18.2657 12.3339C15.7622 10.751 14.4546 10.9658 14.1021 11.0791C13.9599 11.1232 13.8295 11.1985 13.7202 11.2995C13.611 11.4006 13.5257 11.5248 13.4707 11.6631C13.033 12.7243 12.8936 13.8849 13.0674 15.0195C13.0918 15.1475 13.1182 15.2656 13.1455 15.374C12.3171 16.4775 11.8758 17.8234 11.8902 19.2031C11.8875 19.511 11.9016 19.8187 11.9326 20.125C12.2666 24.7275 15.2666 26.1094 17.3569 26.584C17.3135 26.709 17.2739 26.8428 17.2388 26.9844C17.1761 27.2417 17.2181 27.5133 17.3554 27.7397C17.4927 27.9662 17.7142 28.1289 17.9714 28.1922C18.2285 28.2556 18.5002 28.2144 18.727 28.0777C18.9538 27.9409 19.1171 27.7198 19.1812 27.4629C19.2448 27.1297 19.4079 26.8236 19.6489 26.585C19.7947 26.4573 19.9002 26.2901 19.9527 26.1036C20.0052 25.9172 20.0023 25.7195 19.9445 25.5346C19.8866 25.3497 19.7763 25.1856 19.6269 25.0622C19.4775 24.9389 19.2955 24.8616 19.103 24.8398C15.6489 24.4453 14.1494 23.0381 13.9238 19.9414C13.8989 19.6961 13.8876 19.4497 13.8902 19.2031C13.8741 18.2198 14.199 17.2612 14.8096 16.4902C14.8709 16.4099 14.9363 16.3326 15.0054 16.2588C15.1278 16.1218 15.2101 15.9537 15.2433 15.773C15.2765 15.5923 15.2592 15.4059 15.1934 15.2344C15.1259 15.0539 15.074 14.868 15.0381 14.6787C14.9566 14.1404 14.9834 13.5913 15.1167 13.0635C15.9858 13.3089 16.8038 13.7085 17.5317 14.2431C17.6521 14.3233 17.7883 14.3767 17.9311 14.3996C18.0739 14.4225 18.2199 14.4144 18.3594 14.376C20.3805 13.8275 22.5113 13.8278 24.5322 14.377C24.6724 14.4154 24.8192 14.423 24.9626 14.3992C25.106 14.3755 25.2425 14.3209 25.3628 14.2393C26.0872 13.7024 26.9018 13.2993 27.768 13.0488C27.9008 13.564 27.9305 14.1003 27.8554 14.627C27.8192 14.8345 27.7626 15.038 27.6865 15.2344C27.6207 15.4059 27.6034 15.5923 27.6366 15.773C27.6697 15.9537 27.7521 16.1218 27.8745 16.2588C27.9516 16.3457 28.0288 16.4395 28.0981 16.5274C28.7044 17.2853 29.0238 18.2328 29 19.2031C29.0018 19.4627 28.9893 19.7222 28.9624 19.9805C28.7422 23.0361 27.2368 24.4443 23.7666 24.8398C23.5741 24.8618 23.392 24.9392 23.2427 25.0626C23.0933 25.1861 22.983 25.3503 22.9253 25.5353C22.8675 25.7202 22.8647 25.918 22.9172 26.1045C22.9698 26.2911 23.0754 26.4583 23.2212 26.5859C23.4698 26.8309 23.6333 27.1493 23.6875 27.4941C23.7551 27.7618 23.7861 28.0374 23.7798 28.3135V30.6475C23.77 31.2949 23.77 31.7803 23.77 32.0029C23.77 32.2681 23.8754 32.5225 24.0629 32.71C24.2504 32.8976 24.5048 33.0029 24.77 33.0029C25.0352 33.0029 25.2896 32.8976 25.4771 32.71C25.6647 32.5225 25.77 32.2681 25.77 32.0029C25.77 31.7861 25.77 31.3105 25.7798 30.6631V28.3135C25.7878 27.8713 25.7358 27.4301 25.625 27.0019C25.5933 26.8614 25.5545 26.7225 25.5088 26.5859C27.03 26.3332 28.4123 25.5489 29.4094 24.3726C30.4065 23.1962 30.9539 21.7042 30.9541 20.1621C30.987 19.8435 31.0024 19.5234 31 19.2031C31.0222 17.8219 30.5773 16.4736 29.7373 15.3769L29.7373 15.3769Z" fill="#656D72"/>
</g>
<defs>
<clipPath id="clip0_1_56">
<rect width="24" height="24" fill="white" transform="translate(9 10)"/>
</clipPath>
</defs>
</svg>
