<svg width="44" height="44" viewBox="0 0 44 44" fill="none" xmlns="http://www.w3.org/2000/svg">
<circle cx="22" cy="22" r="21.5" stroke="#D9D9D9" stroke-opacity="0.55"/>
<path d="M27.5 16.999C26.6047 16.9986 25.7233 17.2201 24.9346 17.6435C24.8626 17.454 24.7346 17.2908 24.5677 17.1756C24.4008 17.0605 24.2028 16.9989 24 16.999H20C19.8687 16.9989 19.7386 17.0247 19.6172 17.075C19.4959 17.1252 19.3856 17.1989 19.2927 17.2917C19.1999 17.3846 19.1262 17.4949 19.076 17.6162C19.0257 17.7376 18.9999 17.8677 19 17.999V29.999C18.9999 30.1303 19.0257 30.2604 19.076 30.3818C19.1262 30.5031 19.1999 30.6134 19.2927 30.7063C19.3856 30.7992 19.4959 30.8728 19.6172 30.923C19.7386 30.9733 19.8687 30.9991 20 30.999H24C24.1313 30.9991 24.2614 30.9733 24.3828 30.923C24.5041 30.8728 24.6144 30.7992 24.7073 30.7063C24.8002 30.6134 24.8738 30.5031 24.924 30.3818C24.9743 30.2604 25.0001 30.1303 25 29.999V24.499C25 24.2338 25.1054 23.9794 25.2929 23.7919C25.4804 23.6044 25.7348 23.499 26 23.499C26.2652 23.499 26.5196 23.6044 26.7071 23.7919C26.8946 23.9794 27 24.2338 27 24.499V29.999C26.9999 30.1303 27.0257 30.2604 27.076 30.3818C27.1262 30.5031 27.1999 30.6134 27.2927 30.7063C27.3856 30.7992 27.4959 30.8728 27.6172 30.923C27.7386 30.9733 27.8687 30.9991 28 30.999H32C32.1313 30.9991 32.2614 30.9733 32.3828 30.923C32.5041 30.8728 32.6144 30.7992 32.7073 30.7063C32.8002 30.6134 32.8738 30.5031 32.924 30.3818C32.9743 30.2604 33.0001 30.1303 33 29.999V22.499C32.9982 21.0409 32.4181 19.643 31.3871 18.6119C30.356 17.5809 28.9581 17.0008 27.5 16.999ZM31 28.999H29V24.499C29 23.7034 28.6839 22.9403 28.1213 22.3777C27.5587 21.8151 26.7957 21.499 26 21.499C25.2044 21.499 24.4413 21.8151 23.8787 22.3777C23.3161 22.9403 23 23.7034 23 24.499V28.999H21V18.999H23V19.7021C23.0001 19.9093 23.0646 20.1114 23.1845 20.2804C23.3043 20.4494 23.4737 20.577 23.6692 20.6456C23.8647 20.7142 24.0767 20.7204 24.2759 20.6634C24.4751 20.6063 24.6517 20.4888 24.7813 20.3271C25.23 19.7572 25.8456 19.3416 26.542 19.1384C27.2384 18.9352 27.9809 18.9545 28.6657 19.1937C29.3506 19.4329 29.9437 19.88 30.3622 20.4726C30.7806 21.0651 31.0036 21.7736 31 22.499V28.999ZM17 16.999H13C12.8687 16.9989 12.7386 17.0247 12.6172 17.075C12.4959 17.1252 12.3856 17.1989 12.2927 17.2917C12.1999 17.3846 12.1262 17.4949 12.076 17.6162C12.0257 17.7376 11.9999 17.8677 12 17.999V29.999C11.9999 30.1303 12.0257 30.2604 12.076 30.3818C12.1262 30.5031 12.1999 30.6134 12.2927 30.7063C12.3856 30.7992 12.4959 30.8728 12.6172 30.923C12.7386 30.9733 12.8687 30.9991 13 30.999H17C17.1313 30.9991 17.2614 30.9733 17.3828 30.923C17.5041 30.8728 17.6144 30.7992 17.7073 30.7063C17.8002 30.6134 17.8738 30.5031 17.924 30.3818C17.9743 30.2604 18.0001 30.1303 18 29.999V17.999C18.0001 17.8677 17.9743 17.7376 17.924 17.6162C17.8738 17.4949 17.8001 17.3846 17.7073 17.2917C17.6144 17.1989 17.5041 17.1252 17.3828 17.075C17.2614 17.0247 17.1313 16.9989 17 16.999ZM16 28.999H14V18.999H16V28.999ZM15.0147 9.542C14.577 9.51581 14.1386 9.5789 13.7261 9.72745C13.3136 9.876 12.9357 10.1069 12.6152 10.4061C12.2948 10.7053 12.0385 11.0666 11.8621 11.4679C11.6856 11.8692 11.5926 12.3023 11.5888 12.7407C11.5849 13.1791 11.6703 13.6137 11.8397 14.0181C12.0091 14.4225 12.2589 14.7882 12.5741 15.0929C12.8893 15.3977 13.2631 15.6352 13.6729 15.791C14.0828 15.9467 14.52 16.0175 14.958 15.999H14.9863C15.4251 16.0251 15.8646 15.9614 16.278 15.8119C16.6913 15.6623 17.0699 15.4301 17.3904 15.1293C17.711 14.8285 17.9669 14.4656 18.1424 14.0626C18.318 13.6596 18.4095 13.225 18.4114 12.7855C18.4133 12.3459 18.3256 11.9106 18.1536 11.506C17.9816 11.1015 17.7289 10.7363 17.411 10.4328C17.0931 10.1292 16.7166 9.89363 16.3046 9.74048C15.8926 9.58732 15.4536 9.51979 15.0146 9.542H15.0147ZM14.9863 13.999H14.958C14.7851 14.02 14.6096 14.0038 14.4435 13.9514C14.2773 13.8991 14.1243 13.8118 13.9946 13.6955C13.865 13.5791 13.7617 13.4364 13.6917 13.2769C13.6217 13.1174 13.5867 12.9447 13.5889 12.7705C13.5889 12.0244 14.1484 11.542 15.0147 11.542C15.1893 11.5187 15.367 11.5331 15.5357 11.5843C15.7043 11.6354 15.8601 11.7221 15.9924 11.8385C16.1247 11.955 16.2306 12.0984 16.3028 12.2591C16.375 12.4199 16.412 12.5943 16.4111 12.7705C16.4111 13.5166 15.8516 13.999 14.9863 13.999Z" fill="#656D72"/>
</svg>
