<svg xmlns="http://www.w3.org/2000/svg">

<!--Пример как долна  работать иконка свг- меняем пропсы и изменчется размер на сайте-->
           <symbol id="screens" viewBox="0 0 48.446 48.445">
            <g>
                <polygon
                        points="48.446,27.855 48.446,4.35 11.757,4.35 11.757,16.22 14.441,16.22 14.441,7.034 45.762,7.034 45.762,24.394
				31.137,24.394 31.137,30.617 40.823,30.617 40.823,29.367 33.165,29.367 33.165,27.855 			"
                />
                <polygon
                        points="17.904,34.635 17.177,34.635 14.411,34.635 14.411,35.795 21.149,35.795 21.149,36.301 14.411,36.301
				14.411,37.348 33.971,37.348 33.971,34.82 30.297,34.635 			"
                />
                <path
                        d="M0,44.096h13.537V23.787H0V44.096z M7.055,43.076c-0.361,0-0.653-0.295-0.653-0.652c0-0.361,0.292-0.652,0.653-0.652
				c0.36,0,0.652,0.291,0.652,0.652C7.707,42.783,7.415,43.076,7.055,43.076z M1.957,25.744h9.625l-0.001,14.982H1.957V25.744z"
                />
                <polygon
                        points="6.696,18.938 28.389,18.938 28.389,31.943 14.411,31.943 14.411,33.854 30.301,33.854 30.301,17.029
				4.785,17.029 4.785,22.919 6.696,22.919 			"
                />
            </g>
        </symbol>

    <symbol id="github" viewBox="0 0 30 30">
        <g>
            <path
                    d="M15,3C8.373,3,3,8.373,3,15c0,5.623,3.872,10.328,9.092,11.63C12.036,26.468,12,26.28,12,26.047v-2.051c-0.487,0-1.303,0-1.508,0c-0.821,0-1.551-0.353-1.905-1.009c-0.393-0.729-0.461-1.844-1.435-2.526c-0.289-0.227-0.069-0.486,0.264-0.451c0.615,0.174,1.125,0.596,1.605,1.222c0.478,0.627,0.703,0.769,1.596,0.769c0.433,0,1.081-0.025,1.691-0.121c0.328-0.833,0.895-1.6,1.588-1.962c-3.996-0.411-5.903-2.399-5.903-5.098c0-1.162,0.495-2.286,1.336-3.233C9.053,10.647,8.706,8.73,9.435,8c1.798,0,2.885,1.166,3.146,1.481C13.477,9.174,14.461,9,15.495,9c1.036,0,2.024,0.174,2.922,0.483C18.675,9.17,19.763,8,21.565,8c0.732,0.731,0.381,2.656,0.102,3.594c0.836,0.945,1.328,2.066,1.328,3.226c0,2.697-1.904,4.684-5.894,5.097C18.199,20.49,19,22.1,19,23.313v2.734c0,0.104-0.023,0.179-0.035,0.268C23.641,24.676,27,20.236,27,15C27,8.373,21.627,3,15,3z"
            />
        </g>
    </symbol>

    <symbol id="linkedin" viewBox="0 0 24 24">
        <g>
            <path
                    d="M6.5 8C7.32843 8 8 7.32843 8 6.5C8 5.67157 7.32843 5 6.5 5C5.67157 5 5 5.67157 5 6.5C5 7.32843 5.67157 8 6.5 8Z"
            />
            <path
                    d="M5 10C5 9.44772 5.44772 9 6 9H7C7.55228 9 8 9.44771 8 10V18C8 18.5523 7.55228 19 7 19H6C5.44772 19 5 18.5523 5 18V10Z"
            />
            <path
                    d="M11 19H12C12.5523 19 13 18.5523 13 18V13.5C13 12 16 11 16 13V18.0004C16 18.5527 16.4477 19 17 19H18C18.5523 19 19 18.5523 19 18V12C19 10 17.5 9 15.5 9C13.5 9 13 10.5 13 10.5V10C13 9.44771 12.5523 9 12 9H11C10.4477 9 10 9.44772 10 10V18C10 18.5523 10.4477 19 11 19Z"
            />
            <path
                    fill-rule="evenodd"
                    clip-rule="evenodd"
                    d="M20 1C21.6569 1 23 2.34315 23 4V20C23 21.6569 21.6569 23 20 23H4C2.34315 23 1 21.6569 1 20V4C1 2.34315 2.34315 1 4 1H20ZM20 3C20.5523 3 21 3.44772 21 4V20C21 20.5523 20.5523 21 20 21H4C3.44772 21 3 20.5523 3 20V4C3 3.44772 3.44772 3 4 3H20Z"
            />
        </g>
    </symbol>

    <symbol id="webdevcomp" viewBox="0 0 490 490">
        <g>
            <path d="M245,314.021c-5.936,0-10.743,4.813-10.743,10.749s4.808,10.751,10.743,10.751c5.938,0,10.75-4.815,10.75-10.751
        S250.938,314.021,245,314.021z"/>
            <path d="M480,21.003H10c-5.523,0-10,4.477-10,10v327.456c0,5.522,4.477,10,10,10h174.711l-17.492,42.43h-32.88
        c-5.522,0-10,4.478-10,10v38.108c0,5.523,4.478,10,10,10h221.323c5.522,0,10-4.477,10-10v-38.108c0-5.522-4.478-10-10-10h-32.879
        l-17.493-42.43H480c5.522,0,10-4.478,10-10V31.003C490,25.479,485.522,21.003,480,21.003z M470,41.003v240.901H20V41.003H470z
         M345.662,448.997H144.339v-18.108h201.323V448.997z M301.149,410.889H188.852l17.492-42.43h77.312L301.149,410.889z M20,348.459
        v-46.555h450v46.555H20z"/>
            <path d="M323.206,161.089L323.206,161.089L323.206,161.089c0-5.522-4.478-10-10.001-9.999l-10.664,0.001
        c-0.603-3.473-1.497-6.846-2.686-10.08l9.221-5.324c4.782-2.763,6.421-8.879,3.658-13.661c-2.763-4.782-8.877-6.423-13.66-3.659
        l-9.248,5.342c-2.233-2.669-4.699-5.135-7.368-7.369l5.342-9.247c2.763-4.782,1.125-10.899-3.657-13.661
        c-4.782-2.764-10.898-1.125-13.661,3.657l-5.325,9.22c-3.234-1.189-6.607-2.084-10.08-2.688V92.962c0-5.523-4.477-10-10-10
        c-0.025,0-0.051,0.004-0.076,0.004s-0.051-0.004-0.076-0.004c-5.522,0-10,4.477-10,10v10.658c-3.473,0.604-6.846,1.498-10.08,2.688
        l-5.325-9.22c-2.763-4.782-8.879-6.421-13.661-3.657c-4.782,2.762-6.42,8.879-3.657,13.661l5.342,9.247
        c-2.669,2.234-5.135,4.7-7.368,7.369l-9.248-5.342c-4.783-2.764-10.897-1.123-13.66,3.659c-2.763,4.782-1.124,10.898,3.658,13.661
        l9.221,5.324c-1.189,3.234-2.083,6.607-2.686,10.08l-10.664-0.001c-5.523-0.001-10.001,4.477-10.001,9.999l0,0l0,0l0,0l0,0
        c0,5.523,4.478,10,10.001,10l10.664-0.001c0.602,3.472,1.497,6.845,2.686,10.079l-9.221,5.325
        c-4.782,2.763-6.421,8.878-3.658,13.661c2.763,4.781,8.877,6.422,13.66,3.658l9.248-5.342c2.233,2.67,4.699,5.136,7.368,7.369
        l-5.342,9.248c-2.763,4.782-1.125,10.898,3.657,13.66c4.782,2.764,10.898,1.125,13.661-3.656l5.325-9.221
        c3.234,1.189,6.607,2.085,10.08,2.688v10.658c0,5.523,4.478,10,10,10c0.025,0,0.051-0.004,0.076-0.004s0.051,0.004,0.076,0.004
        c5.523,0,10-4.477,10-10v-10.658c3.473-0.603,6.846-1.498,10.08-2.688l5.325,9.221c2.763,4.781,8.879,6.42,13.661,3.656
        c4.782-2.762,6.42-8.878,3.657-13.66l-5.342-9.248c2.669-2.233,5.135-4.699,7.368-7.369l9.248,5.342
        c4.783,2.764,10.898,1.123,13.66-3.658c2.763-4.783,1.124-10.898-3.658-13.661l-9.221-5.325c1.189-3.234,2.083-6.607,2.686-10.079
        l10.664,0.001C318.728,171.089,323.206,166.612,323.206,161.089L323.206,161.089L323.206,161.089z M245.076,199.433
        c-0.025,0-0.051-0.002-0.076-0.002s-0.051,0.002-0.076,0.002c-21.141,0-38.34-17.2-38.34-38.344
        c0-21.143,17.199-38.344,38.34-38.344c0.025,0,0.051,0.002,0.076,0.002s0.051-0.002,0.076-0.002
        c21.141,0,38.34,17.201,38.34,38.344C283.416,182.232,266.217,199.433,245.076,199.433z"/>
        </g>

    </symbol>

    <symbol id="programmer" width="100%" viewBox="0 0 299 325" fill="none">
        <g>
            <path d="M137.374 0.76414C111.417 4.96052 89.3923 18.7955 75.2993 39.5806L72.0874 44.3671H60.4853C52.2917 44.3671 48.5554 44.6294 48.0311 45.154C46.9167 46.2686 46.9167 73.9385 48.0311 75.0532C48.5554 75.5777 50.9807 75.84 54.5859 75.84C57.7323 75.84 60.3542 76.0367 60.3542 76.299C60.2887 76.6268 59.8298 79.4462 59.2399 82.7247C58.3222 87.9701 58.1256 98.9856 57.9289 178.586L57.6667 268.546L55.1103 276.283C51.964 285.921 49.6042 297.133 48.2933 308.608C47.0478 319.23 46.9823 323.164 48.0311 324.213C48.621 324.803 72.0874 325 149.566 325C238.974 325 250.38 324.869 251.101 324.016C251.756 323.23 251.822 321.328 251.494 316.279C250.314 299.297 246.447 281.594 240.875 268.087L238.647 262.71L239.958 258.776C241.203 254.973 241.269 253.203 241.269 191.568V128.295H245.726C248.348 128.295 250.511 127.967 250.97 127.508C252.084 126.393 252.084 98.7234 250.97 97.6087C250.511 97.1497 248.348 96.8219 245.726 96.8219H241.334L241.006 94.6581C240.81 93.5435 240.482 90.4617 240.285 87.9701C236.352 44.1049 208.888 11.5174 167.854 2.00994C158.939 -0.08825 145.764 -0.612797 137.374 0.76414ZM165.035 6.92757C196.892 13.4844 220.293 34.0073 230.06 63.841C233.468 74.3319 236.025 90.5273 236.025 101.871C236.025 107.575 236.287 107.51 228.487 103.641C222.653 100.756 217.802 96.6907 217.54 94.3959C217.343 92.6911 216.95 92.3632 213.41 90.7896C209.281 88.9537 199.645 72.8894 194.008 58.4644C192.5 54.4647 190.862 50.8584 190.403 50.3339C189.747 49.6126 188.305 49.547 181.816 50.2027C162.02 52.2354 147.272 55.1859 131.147 60.497C120.725 63.9721 104.665 71.2502 97.5859 75.84L94.4395 77.807V83.2492V88.6258L89.8511 89.7405C82.5752 91.5108 81.7231 92.0354 81.1331 95.8384C80.4777 100.035 81.0676 109.345 82.313 114.263C83.8862 120.361 87.1636 126.328 90.9655 130.131L94.4395 133.606V191.109V248.613L92.6042 252.547C88.6712 260.743 80.2155 265.529 67.1057 266.972L62.9762 267.431V182.585C62.9762 127.377 63.2384 95.1827 63.6972 90.5273C67.0402 56.3006 81.4609 31.9091 107.222 16.9595C115.94 11.9108 128.918 7.45212 139.996 5.68177C145.764 4.82938 157.432 5.35393 165.035 6.92757ZM68.2201 50.7928C68.2201 51.4485 67.4335 53.8746 66.4502 56.235C65.5326 58.5299 64.0905 62.6607 63.3039 65.349L61.8618 70.2667L57.1423 70.4634L52.4884 70.6601V60.1036V49.6126H60.3542C67.5646 49.6126 68.2201 49.7438 68.2201 50.7928ZM190.075 62.7263C193.877 71.8403 195.843 75.84 200.104 82.6591C201.874 85.4785 203.185 87.9046 203.054 88.0357C202.923 88.1668 201.218 87.9701 199.252 87.6423C187.846 85.413 172.049 86.3965 160.84 89.9372C156.252 91.3797 155.334 91.9042 155.007 93.2812C154.613 94.8548 155.007 101.346 155.793 105.674L156.121 107.641H149.5C143.208 107.641 142.88 107.575 143.208 106.329C143.863 103.51 144.388 94.7893 143.994 93.2812C143.667 91.9042 142.749 91.3797 138.161 89.9372C129.574 87.1833 120.987 86.1342 111.154 86.5932C106.5 86.7899 101.978 87.1833 101.191 87.38C99.749 87.7734 99.6834 87.5767 99.6834 84.2327V80.692L103.813 78.3316C125.379 65.808 150.549 58.5955 183.586 55.3171C184.831 55.1859 186.142 55.1204 186.404 55.1204C186.732 55.1859 188.371 58.5955 190.075 62.7263ZM123.936 92.2321C129.377 92.9533 136.915 94.6581 138.292 95.5105C139.078 95.9039 139.078 97.0186 138.488 101.871C136.325 118.263 130.491 128.885 121.642 132.163C116.726 133.999 109.909 133.999 104.272 132.032L100.011 130.59L99.8145 111.771L99.6834 92.9533L103.42 92.5599C105.517 92.3632 107.68 92.0354 108.205 91.9698C110.368 91.5108 119.282 91.642 123.936 92.2321ZM193.746 92.2321C202.005 93.2156 211.247 95.4449 212.296 96.6907C213.476 98.1333 212.886 108.034 211.247 114.001C207.708 126.59 198.596 133.54 185.421 133.54C171.59 133.54 163.266 122.918 160.513 101.871C159.66 95.1171 159.464 95.4449 165.888 93.8713C174.933 91.642 183.979 91.1174 193.746 92.2321ZM94.4395 110.395V126.59L92.7353 124.295C90.2444 120.951 88.7368 117.869 87.6225 113.476C86.2459 108.1 85.5249 98.6578 86.4426 97.0842C87.0325 96.0351 90.9655 94.4614 93.653 94.2647C94.2429 94.1991 94.4395 97.871 94.4395 110.395ZM246.513 112.558V123.049H243.891H241.269V112.558V102.067H243.891H246.513V112.558ZM224.029 107.247C225.799 108.296 228.552 109.608 230.191 110.263L233.206 111.378L232.616 114.066C231.109 121.213 225.799 128.491 220.817 130.196C218.851 130.917 218.851 130.852 219.244 129.082C219.506 128.098 219.9 122.394 220.096 116.296C220.293 110.263 220.555 105.346 220.686 105.346C220.817 105.346 222.325 106.198 224.029 107.247ZM154.875 112.952C157.104 113.345 157.432 113.607 158.415 116.755C161.365 125.869 167.461 133.54 174.212 136.622C177.228 137.999 179.26 138.458 183.914 138.655C196.696 139.245 206.856 134.065 212.755 124.098C215.377 119.64 215.442 119.705 214 126.983C209.609 150.391 189.878 177.274 169.099 188.29C162.741 191.568 155.007 193.863 149.828 193.863C141.766 193.863 129.77 188.946 120.331 181.93C114.76 177.668 106.107 169.209 102.436 164.292L99.6834 160.62V148.424V136.229L102.502 137.278C104.468 138.064 107.484 138.392 113.121 138.392C120.331 138.458 121.315 138.327 124.789 136.687C131.606 133.475 137.636 125.803 140.586 116.689C141.503 113.87 142.028 113.28 143.47 113.017C146.42 112.558 152.319 112.558 154.875 112.952ZM235.5 254.973C235.238 255.235 233.403 253.071 231.436 250.121C224.488 239.564 213.738 230.122 203.513 225.598C198.596 223.435 189.223 221.008 183.127 220.418C177.555 219.894 178.08 221.271 177.031 205.665C176.638 200.092 176.244 194.322 176.048 192.88C175.72 190.257 175.785 190.257 180.177 187.306C185.88 183.503 197.417 172.029 202.398 165.275C207.708 158.063 212.034 150.391 215.049 142.916L217.606 136.622L221.538 135.376C226.192 133.934 231.699 129.278 234.124 124.688L235.697 121.738L235.894 188.093C235.959 224.615 235.828 254.645 235.5 254.973ZM118.824 187.306C123.215 190.257 123.281 190.257 122.953 192.88C122.757 194.322 122.363 200.092 121.97 205.665C121.577 211.239 121.118 216.747 120.987 217.861L120.659 219.894L114.301 220.681C110.761 221.14 106.107 222.123 103.944 222.779C101.781 223.435 99.9456 224.025 99.8801 224.025C99.749 224.025 99.6834 211.829 99.6834 196.879V169.8L107.09 177.078C111.089 181.077 116.398 185.667 118.824 187.306ZM131.933 194.847C136.85 197.076 145.043 199.109 149.304 199.109C154.089 199.109 161.365 197.404 166.478 195.109C168.772 194.06 170.738 193.273 170.804 193.339C170.869 193.47 171.394 200.289 172.049 208.55C172.639 216.878 173.491 224.025 173.885 224.484C174.278 224.943 175.917 225.336 177.621 225.336C184.176 225.402 198.728 228.483 199.711 230.057C199.907 230.319 195.385 239.433 189.747 250.252L179.391 269.923H149.5H119.61L109.647 250.973C104.141 240.548 99.6834 231.434 99.6834 230.778C99.6834 229.729 100.601 229.205 104.468 228.09C109.778 226.516 116.792 225.336 121.38 225.336C123.084 225.336 124.723 224.943 125.182 224.484C125.575 224.025 126.362 216.747 127.017 208.419C127.607 200.027 128.197 193.207 128.263 193.207C128.328 193.207 129.967 193.929 131.933 194.847ZM209.74 235.171C221.276 242.646 232.288 258.382 238.188 275.824C240.089 281.397 242.842 291.822 243.563 296.019L244.022 298.773L231.764 298.641L219.572 298.445L218.064 293.921C216.557 289.462 215.508 288.151 213.804 288.478C211.706 288.806 211.51 290.642 213.017 295.232C215.508 302.903 215.508 312.542 212.952 318.181L212.231 319.755H149.5H86.7703L86.0493 318.181C83.4929 312.542 83.4929 302.903 85.9838 295.232C87.5569 290.38 87.2947 288.806 84.7383 288.413C83.1652 288.151 82.2475 289.527 80.6088 294.839L79.4944 298.445L67.2368 298.641L54.9792 298.773L55.3725 296.347C56.2246 291.954 58.3222 283.495 60.092 278.053L61.7963 272.676L66.778 272.217C73.7261 271.562 80.6743 269.726 85.2627 267.234C92.8664 263.169 98.7002 254.973 99.4868 247.301L99.8801 243.63L107.353 257.924C111.482 265.792 115.284 272.873 115.808 273.66L116.726 275.168H149.5H182.275L183.455 273.267C184.045 272.217 189.157 262.644 194.729 251.957C200.301 241.335 205.086 232.549 205.282 232.549C205.479 232.549 207.511 233.729 209.74 235.171ZM78.7078 307.1C78.7078 308.87 79.1667 312.28 79.6911 314.837C80.2155 317.328 80.6743 319.492 80.6743 319.558C80.6743 319.689 74.3161 319.755 66.5158 319.755H52.3573L52.7506 316.279C52.9472 314.443 53.275 310.903 53.5371 308.411L53.9304 304.018H66.3191H78.7078V307.1ZM245.464 308.411C245.726 310.903 246.054 314.443 246.25 316.279L246.644 319.755H232.485C224.685 319.755 218.327 319.689 218.327 319.558C218.327 319.492 218.785 317.328 219.31 314.837C219.834 312.28 220.293 308.87 220.293 307.1V304.018H232.682H245.07L245.464 308.411Z" fill="#F4C7FF" fill-opacity="0.87"/>
            <path d="M118.823 100.756C116.135 102.395 115.414 104.297 115.414 110.001C115.414 115.312 116.529 118 119.347 119.443C123.28 121.476 128.328 120.099 130.163 116.492C130.753 115.312 131.146 112.821 131.146 109.936C131.146 107.051 130.753 104.559 130.163 103.379C128.196 99.5757 122.821 98.3299 118.823 100.756ZM125.574 109.936V114.853H123.28H120.986L120.789 110.657C120.527 105.149 120.789 104.559 123.411 104.821L125.574 105.018V109.936Z" fill="#F4C7FF" fill-opacity="0.87"/>
            <path d="M171.263 100.756C168.575 102.395 167.854 104.297 167.854 110.001C167.854 115.312 168.968 118 171.787 119.443C175.72 121.476 180.767 120.099 182.603 116.492C183.193 115.312 183.586 112.821 183.586 109.936C183.586 107.051 183.193 104.559 182.603 103.379C180.636 99.5757 175.261 98.3299 171.263 100.756ZM178.014 109.936V114.853H175.72H173.426L173.229 110.657C172.967 105.149 173.229 104.559 175.851 104.821L178.014 105.018V109.936Z" fill="#F4C7FF" fill-opacity="0.87"/>
            <path d="M147.599 118.722C147.075 119.312 146.878 122.525 147.009 128.623C147.206 136.425 147.337 137.737 148.386 138.392C149.172 138.917 149.828 138.917 150.68 138.392C151.663 137.737 151.794 136.425 151.991 128.623C152.188 119.312 151.794 117.804 149.5 117.804C148.845 117.804 147.993 118.197 147.599 118.722Z" fill="#F4C7FF" fill-opacity="0.87"/>
            <path d="M138.357 148.031C135.079 149.473 131.146 152.948 131.146 154.325C131.146 156.161 133.768 160.227 136.587 162.849C143.47 169.209 155.137 169.209 162.217 162.98C165.166 160.423 167.854 156.227 167.854 154.325C167.854 152.948 163.921 149.473 160.643 148.031C157.104 146.457 154.81 146.326 151.794 147.572C149.762 148.424 149.238 148.424 147.206 147.572C144.191 146.326 141.896 146.457 138.357 148.031ZM146.944 153.342L149.5 154.784L152.057 153.342C153.433 152.555 155.072 151.899 155.662 151.899C157.235 151.899 161.954 154.391 161.954 155.243C161.954 155.637 160.84 157.079 159.464 158.456C154.22 163.702 144.781 163.702 139.537 158.456C138.16 157.079 137.046 155.637 137.046 155.243C137.046 154.391 141.503 151.965 143.207 151.899C143.863 151.899 145.567 152.555 146.944 153.342Z" fill="#F4C7FF" fill-opacity="0.87"/>
            <path d="M37.4773 42.6624C36.9529 43.2525 36.7563 48.498 36.8874 60.4315C37.084 75.7089 37.2151 77.4137 38.2639 78.0694C39.0505 78.5939 39.7059 78.5939 40.5581 78.0694C41.5413 77.4137 41.6724 75.7089 41.8691 60.4315C42.0001 42.9903 41.8691 41.7445 39.3782 41.7445C38.7227 41.7445 37.8706 42.1379 37.4773 42.6624Z" fill="#F4C7FF" fill-opacity="0.87"/>
            <path d="M241.99 42.6624C241.465 43.2525 241.269 48.498 241.4 60.4315C241.596 75.7089 241.728 77.4137 242.776 78.0694C243.563 78.5939 244.218 78.5939 245.071 78.0694C246.054 77.4137 246.185 75.7089 246.382 60.4315C246.513 42.9903 246.382 41.7445 243.891 41.7445C243.235 41.7445 242.383 42.1379 241.99 42.6624Z" fill="#F4C7FF" fill-opacity="0.87"/>
            <path d="M294.428 42.6624C293.904 43.2525 293.707 48.498 293.838 60.4315C294.035 75.7089 294.166 77.4137 295.215 78.0694C296.001 78.5939 296.657 78.5939 297.509 78.0694C298.492 77.4137 298.623 75.7089 298.82 60.4315C298.951 42.9903 298.82 41.7445 296.329 41.7445C295.674 41.7445 294.821 42.1379 294.428 42.6624Z" fill="#F4C7FF" fill-opacity="0.87"/>
            <path d="M0.835746 45.1537C-0.278582 46.2684 -0.278582 73.9383 0.835746 75.0529C1.95007 76.1676 24.3677 76.1676 25.4821 75.0529C26.5964 73.9383 26.5964 46.2684 25.4821 45.1537C24.3677 44.0391 1.95007 44.0391 0.835746 45.1537ZM21.0247 60.1033V70.5943H13.1589H5.29306V60.1033V49.6124H13.1589H21.0247V60.1033Z" fill="#F4C7FF" fill-opacity="0.87"/>
            <path d="M257.787 45.1537C256.672 46.2684 256.672 73.9383 257.787 75.0529C258.901 76.1676 281.319 76.1676 282.433 75.0529C283.547 73.9383 283.547 46.2684 282.433 45.1537C281.319 44.0391 258.901 44.0391 257.787 45.1537ZM277.976 60.1033V70.5943H270.11H262.244V60.1033V49.6124H270.11H277.976V60.1033Z" fill="#F4C7FF" fill-opacity="0.87"/>
            <path d="M0.770259 95.1171C0.245869 95.7072 0.049223 100.953 0.18032 112.886C0.376967 128.164 0.508064 129.868 1.55684 130.524C2.34343 131.049 2.99891 131.049 3.85105 130.524C4.83428 129.868 4.96538 128.164 5.16202 112.886C5.29312 95.445 5.16202 94.1992 2.67117 94.1992C2.01568 94.1992 1.16355 94.5926 0.770259 95.1171Z" fill="#F4C7FF" fill-opacity="0.87"/>
            <path d="M47.965 95.1171C47.4406 95.7072 47.2439 100.953 47.375 112.886C47.5717 128.164 47.7028 129.868 48.7515 130.524C49.5381 131.049 50.1936 131.049 51.0457 130.524C52.029 129.868 52.1601 128.164 52.3567 112.886C52.4878 95.445 52.3567 94.1992 49.8659 94.1992C49.2104 94.1992 48.3583 94.5926 47.965 95.1171Z" fill="#F4C7FF" fill-opacity="0.87"/>
            <path d="M257.721 95.1171C257.197 95.7072 257 100.953 257.131 112.886C257.328 128.164 257.459 129.868 258.508 130.524C259.294 131.049 259.95 131.049 260.802 130.524C261.785 129.868 261.916 128.164 262.113 112.886C262.244 95.445 262.113 94.1992 259.622 94.1992C258.966 94.1992 258.114 94.5926 257.721 95.1171Z" fill="#F4C7FF" fill-opacity="0.87"/>
            <path d="M16.5677 97.6088C15.4534 98.7235 15.4534 126.393 16.5677 127.508C17.682 128.623 40.0997 128.623 41.214 127.508C42.3283 126.393 42.3283 98.7235 41.214 97.6088C40.0997 96.4941 17.682 96.4941 16.5677 97.6088ZM36.7567 112.558V123.049H28.8908H21.025V112.558V102.067H28.8908H36.7567V112.558Z" fill="#F4C7FF" fill-opacity="0.87"/>
            <path d="M273.518 97.6088C272.404 98.7235 272.404 126.393 273.518 127.508C274.632 128.623 297.05 128.623 298.164 127.508C299.279 126.393 299.279 98.7235 298.164 97.6088C297.05 96.4941 274.632 96.4941 273.518 97.6088ZM293.707 112.558V123.049H285.841H277.975V112.558V102.067H285.841H293.707V112.558Z" fill="#F4C7FF" fill-opacity="0.87"/>
        </g>
    </symbol>


<!--    ==================================================================================-->




</svg>