<svg width="44" height="44" viewBox="0 0 44 44" fill="none" xmlns="http://www.w3.org/2000/svg">
<circle cx="22" cy="22" r="21.5" stroke="#D9D9D9" stroke-opacity="0.55"/>
<path d="M32.9912 13.9502C32.9913 13.7736 32.9446 13.6001 32.8559 13.4474C32.7671 13.2946 32.6395 13.1682 32.4859 13.0808C32.3324 12.9935 32.1585 12.9484 31.9819 12.9502C31.8052 12.9519 31.6322 13.0005 31.4805 13.0908C30.8951 13.4392 30.265 13.706 29.6075 13.8838C28.6684 13.0781 27.4708 12.6371 26.2335 12.6416C24.876 12.6432 23.5723 13.1722 22.5977 14.117C21.623 15.0618 21.0536 16.3484 21.0098 17.7051C18.3338 17.2784 15.9085 15.8816 14.1963 13.7813C14.0931 13.6561 13.9614 13.5576 13.8121 13.494C13.6629 13.4304 13.5006 13.4037 13.3389 13.416C13.1772 13.4293 13.0213 13.4818 12.8845 13.5689C12.7476 13.656 12.6341 13.7752 12.5537 13.916C12.1412 14.6358 11.9043 15.4428 11.8622 16.2713C11.8202 17.0999 11.9741 17.9267 12.3115 18.6846L12.3096 18.6865C12.1579 18.7799 12.0328 18.9107 11.9461 19.0663C11.8594 19.2218 11.8141 19.3971 11.8144 19.5752C11.8126 19.7221 11.8214 19.869 11.8408 20.0146C11.9429 21.2729 12.5006 22.4507 13.4092 23.3271C13.3475 23.4446 13.3099 23.5731 13.2985 23.7052C13.2871 23.8373 13.3022 23.9704 13.3428 24.0967C13.7389 25.3308 14.5813 26.3727 15.7051 27.0185C14.5633 27.46 13.3305 27.614 12.1152 27.4668C11.8903 27.4386 11.6624 27.4876 11.4691 27.6059C11.2757 27.7242 11.1282 27.9047 11.0509 28.1178C10.9736 28.3309 10.971 28.5639 11.0436 28.7787C11.1161 28.9935 11.2595 29.1772 11.4502 29.2998C13.5403 30.646 15.9739 31.3617 18.46 31.3613C21.2792 31.393 24.03 30.4921 26.2842 28.7988C28.5385 27.1054 30.1699 24.7145 30.9248 21.998C31.2779 20.8146 31.4581 19.5865 31.46 18.3516C31.46 18.2861 31.46 18.2188 31.459 18.1514C31.9811 17.5883 32.3856 16.9267 32.6487 16.2053C32.9118 15.4839 33.0282 14.7172 32.9912 13.9502ZM29.6846 17.1621C29.5194 17.3575 29.4358 17.6089 29.4512 17.8643C29.4609 18.0293 29.4599 18.1953 29.4599 18.3516C29.4579 19.3951 29.3049 20.4329 29.0058 21.4326C28.3893 23.744 27.015 25.7817 25.1029 27.2192C23.1909 28.6568 20.8517 29.4111 18.46 29.3613C17.6009 29.3616 16.7447 29.2606 15.9092 29.0606C16.9746 28.7172 17.9708 28.1879 18.8516 27.4971C19.0138 27.3693 19.1325 27.1945 19.1915 26.9967C19.2504 26.7988 19.2467 26.5875 19.1808 26.3918C19.1149 26.1961 18.99 26.0257 18.8234 25.9038C18.6567 25.7819 18.4564 25.7145 18.25 25.7109C17.4188 25.698 16.6251 25.363 16.0361 24.7764C16.1855 24.7481 16.334 24.7129 16.4814 24.6709C16.6975 24.6094 16.8865 24.477 17.0181 24.295C17.1497 24.1131 17.2163 23.8921 17.207 23.6677C17.1978 23.4433 17.1133 23.2285 16.9671 23.058C16.821 22.8874 16.6217 22.7711 16.4014 22.7275C15.9189 22.6323 15.4649 22.427 15.0747 22.1277C14.6844 21.8284 14.3685 21.4432 14.1514 21.002C14.3321 21.0266 14.514 21.0419 14.6963 21.0479C14.9129 21.0511 15.1249 20.9854 15.3017 20.8603C15.4784 20.7351 15.6108 20.5569 15.6797 20.3516C15.7457 20.1443 15.7423 19.9212 15.67 19.7161C15.5978 19.511 15.4606 19.335 15.2793 19.2148C14.8394 18.9218 14.4791 18.5243 14.2306 18.0578C13.9822 17.5913 13.8532 17.0705 13.8555 16.542C13.8555 16.4756 13.8574 16.4092 13.8613 16.3438C16.1026 18.434 19.0096 19.6662 22.0703 19.8233C22.2248 19.8293 22.3787 19.8002 22.5203 19.7382C22.6619 19.6761 22.7875 19.5826 22.8877 19.4649C22.9869 19.346 23.0571 19.2057 23.0929 19.055C23.1286 18.9044 23.1289 18.7475 23.0937 18.5967C23.0365 18.3581 23.0074 18.1136 23.0068 17.8682C23.0077 17.0127 23.3479 16.1925 23.9529 15.5876C24.5578 14.9827 25.3779 14.6425 26.2334 14.6416C26.6735 14.6404 27.1091 14.7305 27.5127 14.9062C27.9163 15.0818 28.279 15.3392 28.5781 15.6621C28.6934 15.7862 28.8386 15.8787 28.9998 15.9309C29.161 15.983 29.3328 15.993 29.499 15.96C29.9098 15.8801 30.3147 15.7724 30.7109 15.6377C30.4406 16.1907 30.0953 16.7037 29.6846 17.1621Z" fill="#656D72"/>
</svg>
